<?xml version="1.0" encoding="UTF-8" standalone="no"?> <svg width="124.531mm" height="172.508mm"  viewBox="0 0 354 489"  xmlns="http://www.w3.org/2000/svg" xmlns:xlink="http://www.w3.org/1999/xlink"  version="1.2" baseProfile="tiny"> <title>Generated with ETE http://etetoolkit.org</title> <desc>Generated with ETE http://etetoolkit.org</desc> <defs> </defs> <g fill="none" stroke="black" stroke-width="1" fill-rule="evenodd" stroke-linecap="square" stroke-linejoin="bevel" >      <g fill="none" stroke="none" transform="matrix(1,0,0,1,0,0)" font-family="Sans Serif" font-size="9pt" font-weight="400" font-style="normal"  > <path vector-effect="non-scaling-stroke" fill-rule="evenodd" d="M0,0 L354,0 L354,489 L0,489 L0,0"/> </g>      <g fill="none" stroke="none" transform="matrix(1,0,0,1,1,1)" font-family="Sans Serif" font-size="9pt" font-weight="400" font-style="normal"  > <path vector-effect="non-scaling-stroke" fill-rule="evenodd" d="M0,0 L352,0 L352,437 L0,437 L0,0"/> </g>                                                                                                                                                                                      <g fill="none" stroke="#000000" stroke-opacity="1" stroke-width="1" stroke-linecap="butt" stroke-linejoin="bevel" transform="matrix(1,0,0,1,1,1)" font-family="Sans Serif" font-size="9pt" font-weight="400" font-style="normal"  > <polyline fill="none" vector-effect="non-scaling-stroke" points="0,56.1094 0,317.656 " /> </g>                              <g fill="none" stroke="#000000" stroke-opacity="1" stroke-width="1" stroke-linecap="butt" stroke-linejoin="bevel" transform="matrix(1,0,0,1,1,1)" font-family="Sans Serif" font-size="9pt" font-weight="400" font-style="normal"  > <polyline fill="none" vector-effect="non-scaling-stroke" points="31.3861,23.75 31.3861,88.4688 " /> </g>            <g fill="none" stroke="#000000" stroke-opacity="1" stroke-width="1" stroke-linecap="butt" stroke-linejoin="bevel" transform="matrix(1,0,0,1,1,1)" font-family="Sans Serif" font-size="9pt" font-weight="400" font-style="normal"  > <polyline fill="none" vector-effect="non-scaling-stroke" points="0,56.1094 31.3861,56.1094 " /> </g>                  <g fill="none" stroke="#000000" stroke-opacity="1" stroke-width="1" stroke-linecap="butt" stroke-linejoin="bevel" transform="matrix(1,0,0,1,32.3861,1)" font-family="Sans Serif" font-size="9pt" font-weight="400" font-style="normal"  > <polyline fill="none" vector-effect="non-scaling-stroke" points="22.1805,9.5 22.1805,38 " /> </g>            <g fill="none" stroke="#000000" stroke-opacity="1" stroke-width="1" stroke-linecap="butt" stroke-linejoin="bevel" transform="matrix(1,0,0,1,32.3861,1)" font-family="Sans Serif" font-size="9pt" font-weight="400" font-style="normal"  > <polyline fill="none" vector-effect="non-scaling-stroke" points="0,23.75 22.1805,23.75 " /> </g>                        <g fill="none" stroke="#000000" stroke-opacity="1" stroke-width="1" stroke-linecap="butt" stroke-linejoin="bevel" transform="matrix(1,0,0,1,54.5666,1)" font-family="Sans Serif" font-size="9pt" font-weight="400" font-style="normal"  > <polyline fill="none" vector-effect="non-scaling-stroke" points="0,9.5 55.6622,9.5 " /> </g>          <g fill="none" stroke="#000000" stroke-opacity="1" stroke-width="1" stroke-linecap="square" stroke-linejoin="bevel" transform="matrix(1,0,0,1,110.229,2.5)" font-family="Arial" font-size="10pt" font-weight="400" font-style="normal"  > <text fill="#000000" fill-opacity="1" stroke="none" xml:space="preserve" x="0" y="13" font-family="Arial" font-size="10pt" font-weight="400" font-style="normal"   >FAS1_RHOFA</text> </g>              <g fill="none" stroke="#000000" stroke-opacity="1" stroke-width="1" stroke-linecap="butt" stroke-linejoin="bevel" transform="matrix(1,0,0,1,54.5666,20)" font-family="Sans Serif" font-size="9pt" font-weight="400" font-style="normal"  > <polyline fill="none" vector-effect="non-scaling-stroke" points="29.7319,9.5 29.7319,28.5 " /> </g>            <g fill="none" stroke="#000000" stroke-opacity="1" stroke-width="1" stroke-linecap="butt" stroke-linejoin="bevel" transform="matrix(1,0,0,1,54.5666,20)" font-family="Sans Serif" font-size="9pt" font-weight="400" font-style="normal"  > <polyline fill="none" vector-effect="non-scaling-stroke" points="0,19 29.7319,19 " /> </g>                        <g fill="none" stroke="#000000" stroke-opacity="1" stroke-width="1" stroke-linecap="butt" stroke-linejoin="bevel" transform="matrix(1,0,0,1,84.2986,20)" font-family="Sans Serif" font-size="9pt" font-weight="400" font-style="normal"  > <polyline fill="none" vector-effect="non-scaling-stroke" points="0,9.5 53.3324,9.5 " /> </g>          <g fill="none" stroke="#000000" stroke-opacity="1" stroke-width="1" stroke-linecap="square" stroke-linejoin="bevel" transform="matrix(1,0,0,1,137.631,21.5)" font-family="Arial" font-size="10pt" font-weight="400" font-style="normal"  > <text fill="#000000" fill-opacity="1" stroke="none" xml:space="preserve" x="0" y="13" font-family="Arial" font-size="10pt" font-weight="400" font-style="normal"   >1lgf_A</text> </g>                    <g fill="none" stroke="#000000" stroke-opacity="1" stroke-width="1" stroke-linecap="butt" stroke-linejoin="bevel" transform="matrix(1,0,0,1,84.2986,39)" font-family="Sans Serif" font-size="9pt" font-weight="400" font-style="normal"  > <polyline fill="none" vector-effect="non-scaling-stroke" points="0,9.5 55.1916,9.5 " /> </g>          <g fill="none" stroke="#000000" stroke-opacity="1" stroke-width="1" stroke-linecap="square" stroke-linejoin="bevel" transform="matrix(1,0,0,1,139.49,40.5)" font-family="Arial" font-size="10pt" font-weight="400" font-style="normal"  > <text fill="#000000" fill-opacity="1" stroke="none" xml:space="preserve" x="0" y="13" font-family="Arial" font-size="10pt" font-weight="400" font-style="normal"   >C5C4_AMYOR</text> </g>              <g fill="none" stroke="#000000" stroke-opacity="1" stroke-width="1" stroke-linecap="butt" stroke-linejoin="bevel" transform="matrix(1,0,0,1,32.3861,58)" font-family="Sans Serif" font-size="9pt" font-weight="400" font-style="normal"  > <polyline fill="none" vector-effect="non-scaling-stroke" points="7.4879,9.5 7.4879,53.4375 " /> </g>            <g fill="none" stroke="#000000" stroke-opacity="1" stroke-width="1" stroke-linecap="butt" stroke-linejoin="bevel" transform="matrix(1,0,0,1,32.3861,58)" font-family="Sans Serif" font-size="9pt" font-weight="400" font-style="normal"  > <polyline fill="none" vector-effect="non-scaling-stroke" points="0,31.4688 7.4879,31.4688 " /> </g>                        <g fill="none" stroke="#000000" stroke-opacity="1" stroke-width="1" stroke-linecap="butt" stroke-linejoin="bevel" transform="matrix(1,0,0,1,39.874,58)" font-family="Sans Serif" font-size="9pt" font-weight="400" font-style="normal"  > <polyline fill="none" vector-effect="non-scaling-stroke" points="0,9.5 67.821,9.5 " /> </g>          <g fill="none" stroke="#000000" stroke-opacity="1" stroke-width="1" stroke-linecap="square" stroke-linejoin="bevel" transform="matrix(1,0,0,1,107.695,59.5)" font-family="Arial" font-size="10pt" font-weight="400" font-style="normal"  > <text fill="#000000" fill-opacity="1" stroke="none" xml:space="preserve" x="0" y="13" font-family="Arial" font-size="10pt" font-weight="400" font-style="normal"   >CPXG_STRSQ</text> </g>              <g fill="none" stroke="#000000" stroke-opacity="1" stroke-width="1" stroke-linecap="butt" stroke-linejoin="bevel" transform="matrix(1,0,0,1,39.874,77)" font-family="Sans Serif" font-size="9pt" font-weight="400" font-style="normal"  > <polyline fill="none" vector-effect="non-scaling-stroke" points="13.2217,9.5 13.2217,59.375 " /> </g>            <g fill="none" stroke="#000000" stroke-opacity="1" stroke-width="1" stroke-linecap="butt" stroke-linejoin="bevel" transform="matrix(1,0,0,1,39.874,77)" font-family="Sans Serif" font-size="9pt" font-weight="400" font-style="normal"  > <polyline fill="none" vector-effect="non-scaling-stroke" points="0,34.4375 13.2217,34.4375 " /> </g>                        <g fill="none" stroke="#000000" stroke-opacity="1" stroke-width="1" stroke-linecap="butt" stroke-linejoin="bevel" transform="matrix(1,0,0,1,53.0957,77)" font-family="Sans Serif" font-size="9pt" font-weight="400" font-style="normal"  > <polyline fill="none" vector-effect="non-scaling-stroke" points="0,9.5 48.0754,9.5 " /> </g>          <g fill="none" stroke="#000000" stroke-opacity="1" stroke-width="1" stroke-linecap="square" stroke-linejoin="bevel" transform="matrix(1,0,0,1,101.171,78.5)" font-family="Arial" font-size="10pt" font-weight="400" font-style="normal"  > <text fill="#000000" fill-opacity="1" stroke="none" xml:space="preserve" x="0" y="13" font-family="Arial" font-size="10pt" font-weight="400" font-style="normal"   >CPXF_STRGO</text> </g>              <g fill="none" stroke="#000000" stroke-opacity="1" stroke-width="1" stroke-linecap="butt" stroke-linejoin="bevel" transform="matrix(1,0,0,1,53.0957,96)" font-family="Sans Serif" font-size="9pt" font-weight="400" font-style="normal"  > <polyline fill="none" vector-effect="non-scaling-stroke" points="9.36898,19 9.36898,61.75 " /> </g>            <g fill="none" stroke="#000000" stroke-opacity="1" stroke-width="1" stroke-linecap="butt" stroke-linejoin="bevel" transform="matrix(1,0,0,1,53.0957,96)" font-family="Sans Serif" font-size="9pt" font-weight="400" font-style="normal"  > <polyline fill="none" vector-effect="non-scaling-stroke" points="0,40.375 9.36898,40.375 " /> </g>                  <g fill="none" stroke="#000000" stroke-opacity="1" stroke-width="1" stroke-linecap="butt" stroke-linejoin="bevel" transform="matrix(1,0,0,1,62.4647,96)" font-family="Sans Serif" font-size="9pt" font-weight="400" font-style="normal"  > <polyline fill="none" vector-effect="non-scaling-stroke" points="60.7141,9.5 60.7141,28.5 " /> </g>            <g fill="none" stroke="#000000" stroke-opacity="1" stroke-width="1" stroke-linecap="butt" stroke-linejoin="bevel" transform="matrix(1,0,0,1,62.4647,96)" font-family="Sans Serif" font-size="9pt" font-weight="400" font-style="normal"  > <polyline fill="none" vector-effect="non-scaling-stroke" points="0,19 60.7141,19 " /> </g>                        <g fill="none" stroke="#000000" stroke-opacity="1" stroke-width="1" stroke-linecap="butt" stroke-linejoin="bevel" transform="matrix(1,0,0,1,123.179,96)" font-family="Sans Serif" font-size="9pt" font-weight="400" font-style="normal"  > <polyline fill="none" vector-effect="non-scaling-stroke" points="0,9.5 25.6169,9.5 " /> </g>          <g fill="none" stroke="#000000" stroke-opacity="1" stroke-width="1" stroke-linecap="square" stroke-linejoin="bevel" transform="matrix(1,0,0,1,148.796,97.5)" font-family="Arial" font-size="10pt" font-weight="400" font-style="normal"  > <text fill="#000000" fill-opacity="1" stroke="none" xml:space="preserve" x="0" y="13" font-family="Arial" font-size="10pt" font-weight="400" font-style="normal"   >1cl6_A</text> </g>                    <g fill="none" stroke="#000000" stroke-opacity="1" stroke-width="1" stroke-linecap="butt" stroke-linejoin="bevel" transform="matrix(1,0,0,1,123.179,115)" font-family="Sans Serif" font-size="9pt" font-weight="400" font-style="normal"  > <polyline fill="none" vector-effect="non-scaling-stroke" points="0,9.5 15.1934,9.5 " /> </g>          <g fill="none" stroke="#000000" stroke-opacity="1" stroke-width="1" stroke-linecap="square" stroke-linejoin="bevel" transform="matrix(1,0,0,1,138.372,116.5)" font-family="Arial" font-size="10pt" font-weight="400" font-style="normal"  > <text fill="#000000" fill-opacity="1" stroke="none" xml:space="preserve" x="0" y="13" font-family="Arial" font-size="10pt" font-weight="400" font-style="normal"   >NOR2_CYLTO</text> </g>              <g fill="none" stroke="#000000" stroke-opacity="1" stroke-width="1" stroke-linecap="butt" stroke-linejoin="bevel" transform="matrix(1,0,0,1,62.4647,134)" font-family="Sans Serif" font-size="9pt" font-weight="400" font-style="normal"  > <polyline fill="none" vector-effect="non-scaling-stroke" points="17.2545,9.5 17.2545,38 " /> </g>            <g fill="none" stroke="#000000" stroke-opacity="1" stroke-width="1" stroke-linecap="butt" stroke-linejoin="bevel" transform="matrix(1,0,0,1,62.4647,134)" font-family="Sans Serif" font-size="9pt" font-weight="400" font-style="normal"  > <polyline fill="none" vector-effect="non-scaling-stroke" points="0,23.75 17.2545,23.75 " /> </g>                        <g fill="none" stroke="#000000" stroke-opacity="1" stroke-width="1" stroke-linecap="butt" stroke-linejoin="bevel" transform="matrix(1,0,0,1,79.7192,134)" font-family="Sans Serif" font-size="9pt" font-weight="400" font-style="normal"  > <polyline fill="none" vector-effect="non-scaling-stroke" points="0,9.5 41.0445,9.5 " /> </g>          <g fill="none" stroke="#000000" stroke-opacity="1" stroke-width="1" stroke-linecap="square" stroke-linejoin="bevel" transform="matrix(1,0,0,1,120.764,135.5)" font-family="Arial" font-size="10pt" font-weight="400" font-style="normal"  > <text fill="#000000" fill-opacity="1" stroke="none" xml:space="preserve" x="0" y="13" font-family="Arial" font-size="10pt" font-weight="400" font-style="normal"   >CPXH_STRGR</text> </g>              <g fill="none" stroke="#000000" stroke-opacity="1" stroke-width="1" stroke-linecap="butt" stroke-linejoin="bevel" transform="matrix(1,0,0,1,79.7192,153)" font-family="Sans Serif" font-size="9pt" font-weight="400" font-style="normal"  > <polyline fill="none" vector-effect="non-scaling-stroke" points="29.3749,9.5 29.3749,28.5 " /> </g>            <g fill="none" stroke="#000000" stroke-opacity="1" stroke-width="1" stroke-linecap="butt" stroke-linejoin="bevel" transform="matrix(1,0,0,1,79.7192,153)" font-family="Sans Serif" font-size="9pt" font-weight="400" font-style="normal"  > <polyline fill="none" vector-effect="non-scaling-stroke" points="0,19 29.3749,19 " /> </g>                        <g fill="none" stroke="#000000" stroke-opacity="1" stroke-width="1" stroke-linecap="butt" stroke-linejoin="bevel" transform="matrix(1,0,0,1,109.094,153)" font-family="Sans Serif" font-size="9pt" font-weight="400" font-style="normal"  > <polyline fill="none" vector-effect="non-scaling-stroke" points="0,9.5 9.06293,9.5 " /> </g>          <g fill="none" stroke="#000000" stroke-opacity="1" stroke-width="1" stroke-linecap="square" stroke-linejoin="bevel" transform="matrix(1,0,0,1,118.157,154.5)" font-family="Arial" font-size="10pt" font-weight="400" font-style="normal"  > <text fill="#000000" fill-opacity="1" stroke="none" xml:space="preserve" x="0" y="13" font-family="Arial" font-size="10pt" font-weight="400" font-style="normal"   >CPS2_STRCC</text> </g>                    <g fill="none" stroke="#000000" stroke-opacity="1" stroke-width="1" stroke-linecap="butt" stroke-linejoin="bevel" transform="matrix(1,0,0,1,109.094,172)" font-family="Sans Serif" font-size="9pt" font-weight="400" font-style="normal"  > <polyline fill="none" vector-effect="non-scaling-stroke" points="0,9.5 13.9057,9.5 " /> </g>          <g fill="none" stroke="#000000" stroke-opacity="1" stroke-width="1" stroke-linecap="square" stroke-linejoin="bevel" transform="matrix(1,0,0,1,123,173.5)" font-family="Arial" font-size="10pt" font-weight="400" font-style="normal"  > <text fill="#000000" fill-opacity="1" stroke="none" xml:space="preserve" x="0" y="13" font-family="Arial" font-size="10pt" font-weight="400" font-style="normal"   >CPXE_STRGO</text> </g>              <g fill="none" stroke="#000000" stroke-opacity="1" stroke-width="1" stroke-linecap="butt" stroke-linejoin="bevel" transform="matrix(1,0,0,1,1,191)" font-family="Sans Serif" font-size="9pt" font-weight="400" font-style="normal"  > <polyline fill="none" vector-effect="non-scaling-stroke" points="12.5409,19 12.5409,47.5 " /> </g>            <g fill="none" stroke="#000000" stroke-opacity="1" stroke-width="1" stroke-linecap="butt" stroke-linejoin="bevel" transform="matrix(1,0,0,1,1,191)" font-family="Sans Serif" font-size="9pt" font-weight="400" font-style="normal"  > <polyline fill="none" vector-effect="non-scaling-stroke" points="0,33.25 12.5409,33.25 " /> </g>                  <g fill="none" stroke="#000000" stroke-opacity="1" stroke-width="1" stroke-linecap="butt" stroke-linejoin="bevel" transform="matrix(1,0,0,1,13.5409,191)" font-family="Sans Serif" font-size="9pt" font-weight="400" font-style="normal"  > <polyline fill="none" vector-effect="non-scaling-stroke" points="9.34608,9.5 9.34608,28.5 " /> </g>            <g fill="none" stroke="#000000" stroke-opacity="1" stroke-width="1" stroke-linecap="butt" stroke-linejoin="bevel" transform="matrix(1,0,0,1,13.5409,191)" font-family="Sans Serif" font-size="9pt" font-weight="400" font-style="normal"  > <polyline fill="none" vector-effect="non-scaling-stroke" points="0,19 9.34608,19 " /> </g>                        <g fill="none" stroke="#000000" stroke-opacity="1" stroke-width="1" stroke-linecap="butt" stroke-linejoin="bevel" transform="matrix(1,0,0,1,22.887,191)" font-family="Sans Serif" font-size="9pt" font-weight="400" font-style="normal"  > <polyline fill="none" vector-effect="non-scaling-stroke" points="0,9.5 58.7248,9.5 " /> </g>          <g fill="none" stroke="#000000" stroke-opacity="1" stroke-width="1" stroke-linecap="square" stroke-linejoin="bevel" transform="matrix(1,0,0,1,81.6118,192.5)" font-family="Arial" font-size="10pt" font-weight="400" font-style="normal"  > <text fill="#000000" fill-opacity="1" stroke="none" xml:space="preserve" x="0" y="13" font-family="Arial" font-size="10pt" font-weight="400" font-style="normal"   >1oxa_</text> </g>                    <g fill="none" stroke="#000000" stroke-opacity="1" stroke-width="1" stroke-linecap="butt" stroke-linejoin="bevel" transform="matrix(1,0,0,1,22.887,210)" font-family="Sans Serif" font-size="9pt" font-weight="400" font-style="normal"  > <polyline fill="none" vector-effect="non-scaling-stroke" points="0,9.5 41.4453,9.5 " /> </g>          <g fill="none" stroke="#000000" stroke-opacity="1" stroke-width="1" stroke-linecap="square" stroke-linejoin="bevel" transform="matrix(1,0,0,1,64.3322,211.5)" font-family="Arial" font-size="10pt" font-weight="400" font-style="normal"  > <text fill="#000000" fill-opacity="1" stroke="none" xml:space="preserve" x="0" y="13" font-family="Arial" font-size="10pt" font-weight="400" font-style="normal"   >CPXK_SACER</text> </g>                    <g fill="none" stroke="#000000" stroke-opacity="1" stroke-width="1" stroke-linecap="butt" stroke-linejoin="bevel" transform="matrix(1,0,0,1,13.5409,229)" font-family="Sans Serif" font-size="9pt" font-weight="400" font-style="normal"  > <polyline fill="none" vector-effect="non-scaling-stroke" points="0,9.5 100.181,9.5 " /> </g>          <g fill="none" stroke="#000000" stroke-opacity="1" stroke-width="1" stroke-linecap="square" stroke-linejoin="bevel" transform="matrix(1,0,0,1,113.722,230.5)" font-family="Arial" font-size="10pt" font-weight="400" font-style="normal"  > <text fill="#000000" fill-opacity="1" stroke="none" xml:space="preserve" x="0" y="13" font-family="Arial" font-size="10pt" font-weight="400" font-style="normal"   >C13B_XYLFA</text> </g>              <g fill="none" stroke="#000000" stroke-opacity="1" stroke-width="1" stroke-linecap="butt" stroke-linejoin="bevel" transform="matrix(1,0,0,1,1,248)" font-family="Sans Serif" font-size="9pt" font-weight="400" font-style="normal"  > <polyline fill="none" vector-effect="non-scaling-stroke" points="11.9194,19 11.9194,122.312 " /> </g>            <g fill="none" stroke="#000000" stroke-opacity="1" stroke-width="1" stroke-linecap="butt" stroke-linejoin="bevel" transform="matrix(1,0,0,1,1,248)" font-family="Sans Serif" font-size="9pt" font-weight="400" font-style="normal"  > <polyline fill="none" vector-effect="non-scaling-stroke" points="0,70.6562 11.9194,70.6562 " /> </g>                  <g fill="none" stroke="#000000" stroke-opacity="1" stroke-width="1" stroke-linecap="butt" stroke-linejoin="bevel" transform="matrix(1,0,0,1,12.9194,248)" font-family="Sans Serif" font-size="9pt" font-weight="400" font-style="normal"  > <polyline fill="none" vector-effect="non-scaling-stroke" points="21.3446,9.5 21.3446,28.5 " /> </g>            <g fill="none" stroke="#000000" stroke-opacity="1" stroke-width="1" stroke-linecap="butt" stroke-linejoin="bevel" transform="matrix(1,0,0,1,12.9194,248)" font-family="Sans Serif" font-size="9pt" font-weight="400" font-style="normal"  > <polyline fill="none" vector-effect="non-scaling-stroke" points="0,19 21.3446,19 " /> </g>                        <g fill="none" stroke="#000000" stroke-opacity="1" stroke-width="1" stroke-linecap="butt" stroke-linejoin="bevel" transform="matrix(1,0,0,1,34.264,248)" font-family="Sans Serif" font-size="9pt" font-weight="400" font-style="normal"  > <polyline fill="none" vector-effect="non-scaling-stroke" points="0,9.5 104.969,9.5 " /> </g>          <g fill="none" stroke="#000000" stroke-opacity="1" stroke-width="1" stroke-linecap="square" stroke-linejoin="bevel" transform="matrix(1,0,0,1,139.233,249.5)" font-family="Arial" font-size="10pt" font-weight="400" font-style="normal"  > <text fill="#000000" fill-opacity="1" stroke="none" xml:space="preserve" x="0" y="13" font-family="Arial" font-size="10pt" font-weight="400" font-style="normal"   >1pkf_A</text> </g>                    <g fill="none" stroke="#000000" stroke-opacity="1" stroke-width="1" stroke-linecap="butt" stroke-linejoin="bevel" transform="matrix(1,0,0,1,34.264,267)" font-family="Sans Serif" font-size="9pt" font-weight="400" font-style="normal"  > <polyline fill="none" vector-effect="non-scaling-stroke" points="0,9.5 58.9746,9.5 " /> </g>          <g fill="none" stroke="#000000" stroke-opacity="1" stroke-width="1" stroke-linecap="square" stroke-linejoin="bevel" transform="matrix(1,0,0,1,93.2387,268.5)" font-family="Arial" font-size="10pt" font-weight="400" font-style="normal"  > <text fill="#000000" fill-opacity="1" stroke="none" xml:space="preserve" x="0" y="13" font-family="Arial" font-size="10pt" font-weight="400" font-style="normal"   >BIOI_BACSU</text> </g>              <g fill="none" stroke="#000000" stroke-opacity="1" stroke-width="1" stroke-linecap="butt" stroke-linejoin="bevel" transform="matrix(1,0,0,1,12.9194,286)" font-family="Sans Serif" font-size="9pt" font-weight="400" font-style="normal"  > <polyline fill="none" vector-effect="non-scaling-stroke" points="19.4885,49.875 19.4885,118.75 " /> </g>            <g fill="none" stroke="#000000" stroke-opacity="1" stroke-width="1" stroke-linecap="butt" stroke-linejoin="bevel" transform="matrix(1,0,0,1,12.9194,286)" font-family="Sans Serif" font-size="9pt" font-weight="400" font-style="normal"  > <polyline fill="none" vector-effect="non-scaling-stroke" points="0,84.3125 19.4885,84.3125 " /> </g>                  <g fill="none" stroke="#000000" stroke-opacity="1" stroke-width="1" stroke-linecap="butt" stroke-linejoin="bevel" transform="matrix(1,0,0,1,32.4079,286)" font-family="Sans Serif" font-size="9pt" font-weight="400" font-style="normal"  > <polyline fill="none" vector-effect="non-scaling-stroke" points="71.2865,23.75 71.2865,76 " /> </g>            <g fill="none" stroke="#000000" stroke-opacity="1" stroke-width="1" stroke-linecap="butt" stroke-linejoin="bevel" transform="matrix(1,0,0,1,32.4079,286)" font-family="Sans Serif" font-size="9pt" font-weight="400" font-style="normal"  > <polyline fill="none" vector-effect="non-scaling-stroke" points="0,49.875 71.2865,49.875 " /> </g>                  <g fill="none" stroke="#000000" stroke-opacity="1" stroke-width="1" stroke-linecap="butt" stroke-linejoin="bevel" transform="matrix(1,0,0,1,103.694,286)" font-family="Sans Serif" font-size="9pt" font-weight="400" font-style="normal"  > <polyline fill="none" vector-effect="non-scaling-stroke" points="20.5753,9.5 20.5753,38 " /> </g>            <g fill="none" stroke="#000000" stroke-opacity="1" stroke-width="1" stroke-linecap="butt" stroke-linejoin="bevel" transform="matrix(1,0,0,1,103.694,286)" font-family="Sans Serif" font-size="9pt" font-weight="400" font-style="normal"  > <polyline fill="none" vector-effect="non-scaling-stroke" points="0,23.75 20.5753,23.75 " /> </g>                        <g fill="none" stroke="#000000" stroke-opacity="1" stroke-width="1" stroke-linecap="butt" stroke-linejoin="bevel" transform="matrix(1,0,0,1,124.27,286)" font-family="Sans Serif" font-size="9pt" font-weight="400" font-style="normal"  > <polyline fill="none" vector-effect="non-scaling-stroke" points="0,9.5 128.561,9.5 " /> </g>          <g fill="none" stroke="#000000" stroke-opacity="1" stroke-width="1" stroke-linecap="square" stroke-linejoin="bevel" transform="matrix(1,0,0,1,252.831,287.5)" font-family="Arial" font-size="10pt" font-weight="400" font-style="normal"  > <text fill="#000000" fill-opacity="1" stroke="none" xml:space="preserve" x="0" y="13" font-family="Arial" font-size="10pt" font-weight="400" font-style="normal"   >2hpd_A</text> </g>              <g fill="none" stroke="#000000" stroke-opacity="1" stroke-width="1" stroke-linecap="butt" stroke-linejoin="bevel" transform="matrix(1,0,0,1,124.27,305)" font-family="Sans Serif" font-size="9pt" font-weight="400" font-style="normal"  > <polyline fill="none" vector-effect="non-scaling-stroke" points="20.4577,9.5 20.4577,28.5 " /> </g>            <g fill="none" stroke="#000000" stroke-opacity="1" stroke-width="1" stroke-linecap="butt" stroke-linejoin="bevel" transform="matrix(1,0,0,1,124.27,305)" font-family="Sans Serif" font-size="9pt" font-weight="400" font-style="normal"  > <polyline fill="none" vector-effect="non-scaling-stroke" points="0,19 20.4577,19 " /> </g>                        <g fill="none" stroke="#000000" stroke-opacity="1" stroke-width="1" stroke-linecap="butt" stroke-linejoin="bevel" transform="matrix(1,0,0,1,144.727,305)" font-family="Sans Serif" font-size="9pt" font-weight="400" font-style="normal"  > <polyline fill="none" vector-effect="non-scaling-stroke" points="0,9.5 156.273,9.5 " /> </g>          <g fill="none" stroke="#000000" stroke-opacity="1" stroke-width="1" stroke-linecap="square" stroke-linejoin="bevel" transform="matrix(1,0,0,1,301,306.5)" font-family="Arial" font-size="10pt" font-weight="400" font-style="normal"  > <text fill="#000000" fill-opacity="1" stroke="none" xml:space="preserve" x="0" y="13" font-family="Arial" font-size="10pt" font-weight="400" font-style="normal"   >1n97_A</text> </g>                    <g fill="none" stroke="#000000" stroke-opacity="1" stroke-width="1" stroke-linecap="butt" stroke-linejoin="bevel" transform="matrix(1,0,0,1,144.727,324)" font-family="Sans Serif" font-size="9pt" font-weight="400" font-style="normal"  > <polyline fill="none" vector-effect="non-scaling-stroke" points="0,9.5 148.093,9.5 " /> </g>          <g fill="none" stroke="#000000" stroke-opacity="1" stroke-width="1" stroke-linecap="square" stroke-linejoin="bevel" transform="matrix(1,0,0,1,292.821,325.5)" font-family="Arial" font-size="10pt" font-weight="400" font-style="normal"  > <text fill="#000000" fill-opacity="1" stroke="none" xml:space="preserve" x="0" y="13" font-family="Arial" font-size="10pt" font-weight="400" font-style="normal"   >1dt6_A</text> </g>              <g fill="none" stroke="#000000" stroke-opacity="1" stroke-width="1" stroke-linecap="butt" stroke-linejoin="bevel" transform="matrix(1,0,0,1,103.694,343)" font-family="Sans Serif" font-size="9pt" font-weight="400" font-style="normal"  > <polyline fill="none" vector-effect="non-scaling-stroke" points="7.84392,9.5 7.84392,28.5 " /> </g>            <g fill="none" stroke="#000000" stroke-opacity="1" stroke-width="1" stroke-linecap="butt" stroke-linejoin="bevel" transform="matrix(1,0,0,1,103.694,343)" font-family="Sans Serif" font-size="9pt" font-weight="400" font-style="normal"  > <polyline fill="none" vector-effect="non-scaling-stroke" points="0,19 7.84392,19 " /> </g>                        <g fill="none" stroke="#000000" stroke-opacity="1" stroke-width="1" stroke-linecap="butt" stroke-linejoin="bevel" transform="matrix(1,0,0,1,111.538,343)" font-family="Sans Serif" font-size="9pt" font-weight="400" font-style="normal"  > <polyline fill="none" vector-effect="non-scaling-stroke" points="0,9.5 182.915,9.5 " /> </g>          <g fill="none" stroke="#000000" stroke-opacity="1" stroke-width="1" stroke-linecap="square" stroke-linejoin="bevel" transform="matrix(1,0,0,1,294.453,344.5)" font-family="Arial" font-size="10pt" font-weight="400" font-style="normal"  > <text fill="#000000" fill-opacity="1" stroke="none" xml:space="preserve" x="0" y="13" font-family="Arial" font-size="10pt" font-weight="400" font-style="normal"   >1izo_A</text> </g>                    <g fill="none" stroke="#000000" stroke-opacity="1" stroke-width="1" stroke-linecap="butt" stroke-linejoin="bevel" transform="matrix(1,0,0,1,111.538,362)" font-family="Sans Serif" font-size="9pt" font-weight="400" font-style="normal"  > <polyline fill="none" vector-effect="non-scaling-stroke" points="0,9.5 131.18,9.5 " /> </g>          <g fill="none" stroke="#000000" stroke-opacity="1" stroke-width="1" stroke-linecap="square" stroke-linejoin="bevel" transform="matrix(1,0,0,1,242.719,363.5)" font-family="Arial" font-size="10pt" font-weight="400" font-style="normal"  > <text fill="#000000" fill-opacity="1" stroke="none" xml:space="preserve" x="0" y="13" font-family="Arial" font-size="10pt" font-weight="400" font-style="normal"   >1e9x_A</text> </g>              <g fill="none" stroke="#000000" stroke-opacity="1" stroke-width="1" stroke-linecap="butt" stroke-linejoin="bevel" transform="matrix(1,0,0,1,32.4079,381)" font-family="Sans Serif" font-size="9pt" font-weight="400" font-style="normal"  > <polyline fill="none" vector-effect="non-scaling-stroke" points="9.45747,9.5 9.45747,38 " /> </g>            <g fill="none" stroke="#000000" stroke-opacity="1" stroke-width="1" stroke-linecap="butt" stroke-linejoin="bevel" transform="matrix(1,0,0,1,32.4079,381)" font-family="Sans Serif" font-size="9pt" font-weight="400" font-style="normal"  > <polyline fill="none" vector-effect="non-scaling-stroke" points="0,23.75 9.45747,23.75 " /> </g>                        <g fill="none" stroke="#000000" stroke-opacity="1" stroke-width="1" stroke-linecap="butt" stroke-linejoin="bevel" transform="matrix(1,0,0,1,41.8654,381)" font-family="Sans Serif" font-size="9pt" font-weight="400" font-style="normal"  > <polyline fill="none" vector-effect="non-scaling-stroke" points="0,9.5 79.6509,9.5 " /> </g>          <g fill="none" stroke="#000000" stroke-opacity="1" stroke-width="1" stroke-linecap="square" stroke-linejoin="bevel" transform="matrix(1,0,0,1,121.516,382.5)" font-family="Arial" font-size="10pt" font-weight="400" font-style="normal"  > <text fill="#000000" fill-opacity="1" stroke="none" xml:space="preserve" x="0" y="13" font-family="Arial" font-size="10pt" font-weight="400" font-style="normal"   >CPXM_BACSU</text> </g>              <g fill="none" stroke="#000000" stroke-opacity="1" stroke-width="1" stroke-linecap="butt" stroke-linejoin="bevel" transform="matrix(1,0,0,1,41.8654,400)" font-family="Sans Serif" font-size="9pt" font-weight="400" font-style="normal"  > <polyline fill="none" vector-effect="non-scaling-stroke" points="18.9024,9.5 18.9024,28.5 " /> </g>            <g fill="none" stroke="#000000" stroke-opacity="1" stroke-width="1" stroke-linecap="butt" stroke-linejoin="bevel" transform="matrix(1,0,0,1,41.8654,400)" font-family="Sans Serif" font-size="9pt" font-weight="400" font-style="normal"  > <polyline fill="none" vector-effect="non-scaling-stroke" points="0,19 18.9024,19 " /> </g>                        <g fill="none" stroke="#000000" stroke-opacity="1" stroke-width="1" stroke-linecap="butt" stroke-linejoin="bevel" transform="matrix(1,0,0,1,60.7679,400)" font-family="Sans Serif" font-size="9pt" font-weight="400" font-style="normal"  > <polyline fill="none" vector-effect="non-scaling-stroke" points="0,9.5 132.146,9.5 " /> </g>          <g fill="none" stroke="#000000" stroke-opacity="1" stroke-width="1" stroke-linecap="square" stroke-linejoin="bevel" transform="matrix(1,0,0,1,192.914,401.5)" font-family="Arial" font-size="10pt" font-weight="400" font-style="normal"  > <text fill="#000000" fill-opacity="1" stroke="none" xml:space="preserve" x="0" y="13" font-family="Arial" font-size="10pt" font-weight="400" font-style="normal"   >1phd_</text> </g>                    <g fill="none" stroke="#000000" stroke-opacity="1" stroke-width="1" stroke-linecap="butt" stroke-linejoin="bevel" transform="matrix(1,0,0,1,60.7679,419)" font-family="Sans Serif" font-size="9pt" font-weight="400" font-style="normal"  > <polyline fill="none" vector-effect="non-scaling-stroke" points="0,9.5 113.014,9.5 " /> </g>          <g fill="none" stroke="#000000" stroke-opacity="1" stroke-width="1" stroke-linecap="square" stroke-linejoin="bevel" transform="matrix(1,0,0,1,173.782,420.5)" font-family="Arial" font-size="10pt" font-weight="400" font-style="normal"  > <text fill="#000000" fill-opacity="1" stroke="none" xml:space="preserve" x="0" y="13" font-family="Arial" font-size="10pt" font-weight="400" font-style="normal"   >1cpt_</text> </g>                                                                                                                                                                                              <g fill="none" stroke="#000000" stroke-opacity="1" stroke-width="1" stroke-linecap="square" stroke-linejoin="bevel" transform="matrix(1,0,0,1,1,439)" font-family="Sans Serif" font-size="9pt" font-weight="400" font-style="normal"  > <polyline fill="none" vector-effect="none" points="0,5 50,5 " /> </g>      <g fill="none" stroke="#000000" stroke-opacity="1" stroke-width="1" stroke-linecap="square" stroke-linejoin="bevel" transform="matrix(1,0,0,1,1,439)" font-family="Sans Serif" font-size="9pt" font-weight="400" font-style="normal"  > <polyline fill="none" vector-effect="none" points="0,0 0,10 " /> </g>      <g fill="none" stroke="#000000" stroke-opacity="1" stroke-width="1" stroke-linecap="square" stroke-linejoin="bevel" transform="matrix(1,0,0,1,1,439)" font-family="Sans Serif" font-size="9pt" font-weight="400" font-style="normal"  > <polyline fill="none" vector-effect="none" points="50,0 50,10 " /> </g>      <g fill="none" stroke="#000000" stroke-opacity="1" stroke-width="1" stroke-linecap="square" stroke-linejoin="bevel" transform="matrix(1,0,0,1,1,449)" font-family="Sans Serif" font-size="9pt" font-weight="400" font-style="normal"  > <text fill="#000000" fill-opacity="1" stroke="none" xml:space="preserve" x="0" y="12" font-family="Sans Serif" font-size="9pt" font-weight="400" font-style="normal"   >0.48</text> </g>     </g> </svg> 